<svg width="16" height="22" viewBox="0 0 16 22" fill="none" xmlns="http://www.w3.org/2000/svg">
<path fill-rule="evenodd" clip-rule="evenodd" d="M1.5777 0.00292969C2.38442 0.00292969 3.03839 0.656905 3.03839 1.46362V16.256C3.03839 17.6006 4.12835 18.6905 5.47288 18.6905H14.237C15.0438 18.6905 15.6977 19.3445 15.6977 20.1512C15.6977 20.9579 15.0438 21.6119 14.237 21.6119H5.47288C2.51491 21.6119 0.117004 19.214 0.117004 16.256V1.46362C0.117004 0.656905 0.770979 0.00292969 1.5777 0.00292969Z" fill="white"/>
<path fill-rule="evenodd" clip-rule="evenodd" d="M14.0643 3.44467C14.6347 4.01511 14.6347 4.93997 14.0643 5.51041L7.51893 12.0557C6.5682 13.0065 5.02677 13.0065 4.07604 12.0557L0.544832 8.52454C-0.0256047 7.9541 -0.0256047 7.02924 0.544832 6.4588C1.11527 5.88837 2.04013 5.88837 2.61056 6.4588L5.79748 9.64572L11.9985 3.44467C12.569 2.87424 13.4938 2.87424 14.0643 3.44467Z" fill="white"/>
</svg>
