<svg width="163" height="52" viewBox="0 0 163 52" fill="none" xmlns="http://www.w3.org/2000/svg">
<rect width="52" height="52" rx="8" fill="#0072BB"/>
<path d="M69.8107 37.6735V19.0643H62.4V15.6H81.0698V19.0643H73.6591V37.6735H69.8107Z" fill="#0072BB"/>
<path d="M93.6682 23.7243C94.2725 24.8893 94.3043 26.0849 94.3043 27.5258V37.6735H90.9647V35.4355C89.5017 37.2749 87.657 38.1333 84.9217 38.1333C81.2005 38.1333 79.1649 35.8647 79.1649 33.1362C79.1649 30.7449 80.3735 29.0893 83.077 28.1696C84.8899 27.6178 87.5297 27.2499 90.5512 26.8513C90.424 24.9199 89.3744 24.0308 87.0208 24.0308C85.4942 24.0308 83.8403 24.6747 83.2996 26.3608L79.7692 25.2878C80.628 22.498 82.9816 20.6585 87.0527 20.6585C90.106 20.6585 92.5232 21.5476 93.6682 23.7243ZM90.106 32.431C90.424 31.6952 90.4876 30.6529 90.5194 29.8558C87.7842 30.285 86.2257 30.5303 85.0171 30.8981C83.6813 31.3887 82.918 32.0325 82.918 33.0748C82.918 34.3011 83.8721 35.1902 85.685 35.1902C88.2931 35.1902 89.7561 33.596 90.106 32.431Z" fill="#0072BB"/>
<path d="M103.82 38.1333C99.5576 38.1333 96.7906 36.2019 96.2181 32.8602L100.13 32.2777C100.512 33.9332 101.975 34.9143 104.074 34.9143C105.887 34.9143 106.968 34.1785 106.968 32.9522C106.968 31.8179 106.491 31.542 102.611 30.5609C98.2854 29.4572 96.7906 28.2309 96.7906 25.7477C96.7906 22.6513 99.4304 20.6585 103.533 20.6585C107.541 20.6585 110.34 22.5593 110.753 25.5331L106.841 26.2075C106.65 24.8279 105.473 23.9695 103.597 23.8469C101.816 23.7856 100.607 24.4601 100.607 25.5637C100.607 26.5448 101.275 26.882 105.283 27.863C109.417 28.9054 110.88 30.193 110.88 32.7683C110.88 36.1099 108.24 38.1333 103.82 38.1333Z" fill="#0072BB"/>
<path d="M124.715 21.1184H128.596V37.6735H125.192V35.834C123.952 37.2749 122.044 38.1333 119.563 38.1333C113.265 38.1333 112.82 32.3391 112.82 30.3463V21.1184H116.7V29.0893C116.7 31.1434 117.05 34.669 120.708 34.669C122.648 34.669 124.715 33.6267 124.715 29.6105V21.1184Z" fill="#0072BB"/>
<path d="M131.744 37.6735L131.775 15.6H135.656V29.0893L141.953 21.1184H146.724L140.077 29.3959L147.296 37.6735H142.239L135.656 29.7025V37.6735H131.744Z" fill="#0072BB"/>
<path d="M150.487 30.4383C150.773 33.1668 152.3 34.669 154.908 34.669C156.785 34.669 158.184 33.8413 158.916 32.3084L162.7 33.4121C161.396 36.4165 158.439 38.1333 155.099 38.1333C149.915 38.1333 146.352 34.6077 146.352 29.5799C146.352 24.1535 149.851 20.6585 154.908 20.6585C160.22 20.6585 163.337 24.4601 162.891 30.4383H150.487ZM155.067 23.8776C152.491 23.8776 151.028 25.1652 150.583 27.6178H159.011C158.661 25.0425 157.421 23.8776 155.067 23.8776Z" fill="#0072BB"/>
<path fill-rule="evenodd" clip-rule="evenodd" d="M17.9731 12.1333C18.9961 12.1333 19.8254 12.9627 19.8254 13.9857V32.7445C19.8254 34.4496 21.2077 35.8318 22.9127 35.8318H34.0269C35.0499 35.8318 35.8792 36.6611 35.8792 37.6841C35.8792 38.7072 35.0499 39.5365 34.0269 39.5365H22.9127C19.1616 39.5365 16.1207 36.4956 16.1207 32.7445V13.9857C16.1207 12.9627 16.9501 12.1333 17.9731 12.1333Z" fill="white"/>
<path fill-rule="evenodd" clip-rule="evenodd" d="M33.8078 16.4982C34.5312 17.2216 34.5312 18.3944 33.8078 19.1178L25.5074 27.4182C24.3017 28.6238 22.347 28.6238 21.1413 27.4182L16.6633 22.9401C15.9399 22.2167 15.9399 21.0439 16.6633 20.3205C17.3867 19.5971 18.5595 19.5971 19.2829 20.3205L23.3244 24.3619L31.1881 16.4982C31.9115 15.7748 33.0844 15.7748 33.8078 16.4982Z" fill="white"/>
</svg>